<?xml version="1.0" encoding="UTF-8"?>
<svg width="91px" height="32px" viewBox="0 0 91 32" version="1.1" xmlns="http://www.w3.org/2000/svg" xmlns:xlink="http://www.w3.org/1999/xlink">
    <!-- Generator: Sketch 58 (84663) - https://sketch.com -->
    <title>logo@1x</title>
    <desc>Created with Sketch.</desc>
    <g id="Page-1" stroke="none" stroke-width="1" fill="none" fill-rule="evenodd">
        <g id="desktop" transform="translate(-112.000000, -32.000000)" fill="#E80B3F" fill-rule="nonzero">
            <g id="Header">
                <g id="logo" transform="translate(112.000000, 32.000000)">
                    <path d="M74.4258065,0 C70.8129032,0 67.4580645,1.18709677 64.7225806,3.2 C61.9870968,1.18709677 58.6322581,0 55.0193548,0 C51.4064516,0 48.0516129,1.18709677 45.316129,3.2 C42.5806452,1.18709677 39.2774194,0 35.6129032,0 C32,0 28.6451613,1.18709677 25.9096774,3.2 C23.2258065,1.18709677 19.8709677,0 16.2064516,0 C7.27741935,0 0,7.17419355 0,16 C0,24.8258065 7.27741935,32 16.2064516,32 C19.8193548,32 23.1741935,30.8129032 25.9096774,28.8 C28.6451613,30.8129032 32,32 35.6129032,32 C39.2258065,32 42.5806452,30.8129032 45.316129,28.8 C48,30.8129032 51.3548387,32 55.0193548,32 C58.6322581,32 61.9870968,30.8129032 64.7225806,28.8 C67.4064516,30.8129032 70.7612903,32 74.4258065,32 C83.3548387,32 90.6322581,24.8258065 90.6322581,16 C90.6322581,7.17419355 83.3548387,0 74.4258065,0 Z M64.7225806,24.2580645 C62.7612903,22.0387097 61.5741935,19.1483871 61.5741935,16 C61.5741935,12.8516129 62.7612903,9.96129032 64.7225806,7.74193548 C66.683871,9.96129032 67.8709677,12.8516129 67.8709677,16 C67.8709677,19.1483871 66.683871,22.0387097 64.7225806,24.2580645 L64.7225806,24.2580645 Z M45.316129,24.2580645 C43.3548387,22.0387097 42.1677419,19.1483871 42.1677419,16 C42.1677419,12.8516129 43.3548387,9.96129032 45.316129,7.74193548 C47.2774194,9.96129032 48.4645161,12.8516129 48.4645161,16 C48.4645161,19.1483871 47.2774194,22.0387097 45.316129,24.2580645 Z M25.9096774,24.2580645 C23.9483871,22.0387097 22.7612903,19.1483871 22.7612903,16 C22.7612903,12.8516129 23.9483871,9.96129032 25.9096774,7.74193548 C27.8709677,9.96129032 29.0580645,12.8516129 29.0580645,16 C29.1096774,19.1483871 27.8709677,22.0387097 25.9096774,24.2580645 Z M3.35483871,16 C3.35483871,9.03225806 9.13548387,3.35483871 16.2064516,3.35483871 C18.8387097,3.35483871 21.316129,4.12903226 23.3806452,5.52258065 C20.9032258,8.30967742 19.4064516,11.9741935 19.4064516,16 C19.4064516,20.0258065 20.9032258,23.6903226 23.3806452,26.4774194 C21.316129,27.8193548 18.8903226,28.6451613 16.2064516,28.6451613 C9.13548387,28.6451613 3.35483871,22.9677419 3.35483871,16 Z M28.4387097,26.4774194 C30.916129,23.6903226 32.4129032,20.0258065 32.4129032,16 C32.4129032,11.9741935 30.916129,8.30967742 28.4387097,5.52258065 C30.5032258,4.18064516 32.9290323,3.35483871 35.6129032,3.35483871 C38.2967742,3.35483871 40.7225806,4.12903226 42.7870968,5.52258065 C40.3096774,8.30967742 38.7612903,11.9741935 38.7612903,16 C38.7612903,20.0258065 40.2580645,23.6903226 42.7870968,26.4774194 C40.7225806,27.8193548 38.2967742,28.6451613 35.6129032,28.6451613 C32.9806452,28.6451613 30.5032258,27.8193548 28.4387097,26.4774194 Z M47.8451613,26.4774194 C50.3225806,23.6903226 51.8709677,20.0258065 51.8709677,16 C51.8709677,11.9741935 50.3741935,8.30967742 47.8451613,5.52258065 C49.9096774,4.18064516 52.3354839,3.35483871 55.0193548,3.35483871 C57.7032258,3.35483871 60.1290323,4.12903226 62.1935484,5.52258065 C59.716129,8.30967742 58.1677419,11.9741935 58.1677419,16 C58.1677419,20.0258065 59.6645161,23.6903226 62.1935484,26.4774194 C60.1290323,27.8193548 57.7032258,28.6451613 55.0193548,28.6451613 C52.3354839,28.6451613 49.9096774,27.8193548 47.8451613,26.4774194 Z M74.4258065,28.6451613 C71.7935484,28.6451613 69.316129,27.8709677 67.2516129,26.4774194 C69.7290323,23.6903226 71.2774194,20.0258065 71.2774194,16 C71.2774194,11.9741935 69.7806452,8.30967742 67.2516129,5.52258065 C69.316129,4.18064516 71.7419355,3.35483871 74.4258065,3.35483871 C81.4967742,3.35483871 87.2774194,9.03225806 87.2774194,16 C87.2774194,22.9677419 81.4967742,28.6451613 74.4258065,28.6451613 Z" id="Shape"></path>
                </g>
            </g>
        </g>
    </g>
</svg>